<?xml version="1.0" encoding="utf-8"?>
<!-- Generator: Adobe Illustrator 17.0.0, SVG Export Plug-In . SVG Version: 6.00 Build 0)  -->
<!DOCTYPE svg PUBLIC "-//W3C//DTD SVG 1.1//EN" "http://www.w3.org/Graphics/SVG/1.1/DTD/svg11.dtd">
<svg version="1.1" id="Layer_1" xmlns="http://www.w3.org/2000/svg" xmlns:xlink="http://www.w3.org/1999/xlink" x="0px" y="0px"
	 width="512px" height="512px" viewBox="0 0 512 512" enable-background="new 0 0 512 512" xml:space="preserve">
<g id="Shape_120">
	<g>
		<path fill-rule="evenodd" clip-rule="evenodd" fill="#4167B0" d="M377.854,374.758c-65.487,65.53-171.719,65.53-237.25,0
			c-65.509-65.53-65.509-171.721,0-237.251c56.444-56.489,143.122-64.154,207.922-23.298l-55.18,55.222l213.487,45.8L460.987,1.812
			l-50.544,50.477c-99.448-73.909-240.6-66.04-330.87,24.207c-99.208,99.208-99.208,260.088,0,359.271
			c99.227,99.227,260.086,99.227,359.313,0c24.675-24.632,43.207-53.163,55.576-83.576l-85.393-20.708
			C401.244,347.091,390.891,361.747,377.854,374.758z"/>
	</g>
</g>
</svg>
